<svg xmlns="http://www.w3.org/2000/svg" width="1000" zoomAndPan="magnify" viewBox="0 0 750 1124.99995" height="1500"
     preserveAspectRatio="xMidYMid meet" version="1.0">
    <defs>
        <g/>
    </defs>
    <g fill="#ff00ff" fill-opacity="1">
        <g transform="translate(244.674912, 378.131227)">
            <g>
                <path d="M 15.59375 0 L 6.296875 0 C 5.535156 0 4.984375 -0.164062 4.640625 -0.5 C 4.304688 -0.84375 4.140625 -1.394531 4.140625 -2.15625 L 4.140625 -41.046875 C 4.140625 -41.804688 4.304688 -42.351562 4.640625 -42.6875 C 4.984375 -43.03125 5.535156 -43.203125 6.296875 -43.203125 L 15.59375 -43.203125 C 16.351562 -43.203125 16.90625 -43.03125 17.25 -42.6875 C 17.59375 -42.351562 17.765625 -41.804688 17.765625 -41.046875 L 17.765625 -28.015625 L 27.78125 -28.015625 L 27.78125 -41.046875 C 27.78125 -41.804688 27.945312 -42.351562 28.28125 -42.6875 C 28.625 -43.03125 29.175781 -43.203125 29.9375 -43.203125 L 39.234375 -43.203125 C 39.992188 -43.203125 40.546875 -43.03125 40.890625 -42.6875 C 41.234375 -42.351562 41.40625 -41.804688 41.40625 -41.046875 L 41.40625 -2.15625 C 41.40625 -1.394531 41.234375 -0.84375 40.890625 -0.5 C 40.546875 -0.164062 39.992188 0 39.234375 0 L 29.9375 0 C 29.175781 0 28.625 -0.164062 28.28125 -0.5 C 27.945312 -0.84375 27.78125 -1.394531 27.78125 -2.15625 L 27.78125 -15.484375 L 17.765625 -15.484375 L 17.765625 -2.15625 C 17.765625 -1.394531 17.59375 -0.84375 17.25 -0.5 C 16.90625 -0.164062 16.351562 0 15.59375 0 Z M 15.59375 0 "/>
            </g>
        </g>
    </g>
    <g fill="#ff00ff" fill-opacity="1">
        <g transform="translate(290.214863, 378.131227)">
            <g>
                <path d="M 19.796875 -30.59375 L 16.984375 -21.484375 L 26.40625 -21.484375 L 23.578125 -30.59375 C 23.421875 -30.957031 23.25 -31.21875 23.0625 -31.375 C 22.882812 -31.539062 22.675781 -31.625 22.4375 -31.625 L 20.9375 -31.625 C 20.695312 -31.625 20.488281 -31.539062 20.3125 -31.375 C 20.132812 -31.21875 19.960938 -30.957031 19.796875 -30.59375 Z M 16.375 -2.15625 C 16.375 -1.394531 16.203125 -0.84375 15.859375 -0.5 C 15.523438 -0.164062 14.976562 0 14.21875 0 L 5.40625 0 C 4.644531 0 4.09375 -0.164062 3.75 -0.5 C 3.40625 -0.84375 3.234375 -1.394531 3.234375 -2.15625 L 3.234375 -18 C 3.234375 -19.195312 3.421875 -20.578125 3.796875 -22.140625 C 4.179688 -23.703125 4.773438 -25.519531 5.578125 -27.59375 L 10.796875 -41.21875 C 11.035156 -41.894531 11.40625 -42.394531 11.90625 -42.71875 C 12.40625 -43.039062 13.054688 -43.203125 13.859375 -43.203125 L 30 -43.203125 C 30.757812 -43.203125 31.390625 -43.039062 31.890625 -42.71875 C 32.390625 -42.394531 32.757812 -41.894531 33 -41.21875 L 38.21875 -27.59375 C 39.019531 -25.519531 39.609375 -23.703125 39.984375 -22.140625 C 40.367188 -20.578125 40.5625 -19.195312 40.5625 -18 L 40.5625 -2.15625 C 40.5625 -1.394531 40.390625 -0.84375 40.046875 -0.5 C 39.710938 -0.164062 39.164062 0 38.40625 0 L 29.34375 0 C 28.539062 0 27.945312 -0.164062 27.5625 -0.5 C 27.1875 -0.84375 27 -1.394531 27 -2.15625 L 27 -10.5625 L 16.375 -10.5625 Z M 16.375 -2.15625 "/>
            </g>
        </g>
    </g>
    <g fill="#ff00ff" fill-opacity="1">
        <g transform="translate(334.014821, 378.131227)">
            <g>
                <path d="M 15.296875 0 L 6.296875 0 C 5.535156 0 4.984375 -0.164062 4.640625 -0.5 C 4.304688 -0.84375 4.140625 -1.394531 4.140625 -2.15625 L 4.140625 -41.046875 C 4.140625 -41.804688 4.304688 -42.351562 4.640625 -42.6875 C 4.984375 -43.03125 5.535156 -43.203125 6.296875 -43.203125 L 12.546875 -43.203125 C 13.304688 -43.203125 13.953125 -43.082031 14.484375 -42.84375 C 15.023438 -42.601562 15.554688 -42.179688 16.078125 -41.578125 L 27.71875 -28.265625 L 27.71875 -41.046875 C 27.71875 -41.804688 27.882812 -42.351562 28.21875 -42.6875 C 28.5625 -43.03125 29.113281 -43.203125 29.875 -43.203125 L 38.875 -43.203125 C 39.632812 -43.203125 40.1875 -43.03125 40.53125 -42.6875 C 40.875 -42.351562 41.046875 -41.804688 41.046875 -41.046875 L 41.046875 -2.15625 C 41.046875 -1.394531 40.875 -0.84375 40.53125 -0.5 C 40.1875 -0.164062 39.632812 0 38.875 0 L 29.875 0 C 29.113281 0 28.5625 -0.164062 28.21875 -0.5 C 27.882812 -0.84375 27.71875 -1.394531 27.71875 -2.15625 L 27.71875 -9.546875 L 17.453125 -21.953125 L 17.453125 -2.15625 C 17.453125 -1.394531 17.28125 -0.84375 16.9375 -0.5 C 16.601562 -0.164062 16.054688 0 15.296875 0 Z M 15.296875 0 "/>
            </g>
        </g>
    </g>
    <g fill="#ff00ff" fill-opacity="1">
        <g transform="translate(379.194775, 378.131227)">
            <g>
                <path d="M 37.140625 0 L 18.234375 0 C 13.234375 0 9.523438 -1 7.109375 -3 C 4.691406 -5 3.484375 -8.078125 3.484375 -12.234375 L 3.484375 -30.953125 C 3.484375 -35.117188 4.691406 -38.203125 7.109375 -40.203125 C 9.523438 -42.203125 13.234375 -43.203125 18.234375 -43.203125 L 33.234375 -43.203125 C 33.992188 -43.203125 34.546875 -43.03125 34.890625 -42.6875 C 35.234375 -42.351562 35.40625 -41.804688 35.40625 -41.046875 L 35.40625 -33.78125 C 35.40625 -33.019531 35.234375 -32.46875 34.890625 -32.125 C 34.546875 -31.789062 33.992188 -31.625 33.234375 -31.625 L 20.765625 -31.625 C 19.523438 -31.625 18.601562 -31.375 18 -30.875 C 17.394531 -30.375 17.09375 -29.625 17.09375 -28.625 L 17.09375 -14.28125 C 17.09375 -13.28125 17.320312 -12.539062 17.78125 -12.0625 C 18.25 -11.582031 18.941406 -11.34375 19.859375 -11.34375 L 25.6875 -11.34375 L 25.6875 -20.703125 C 25.6875 -21.460938 25.851562 -22.007812 26.1875 -22.34375 C 26.53125 -22.6875 27.082031 -22.859375 27.84375 -22.859375 L 37.140625 -22.859375 C 37.898438 -22.859375 38.445312 -22.6875 38.78125 -22.34375 C 39.125 -22.007812 39.296875 -21.460938 39.296875 -20.703125 L 39.296875 -2.15625 C 39.296875 -1.394531 39.125 -0.84375 38.78125 -0.5 C 38.445312 -0.164062 37.898438 0 37.140625 0 Z M 37.140625 0 "/>
            </g>
        </g>
    </g>
    <g fill="#ff00ff" fill-opacity="1">
        <g transform="translate(421.674737, 378.131227)">
            <g>
                <path d="M 15.234375 0 L 6.296875 0 C 5.535156 0 4.984375 -0.164062 4.640625 -0.5 C 4.304688 -0.84375 4.140625 -1.394531 4.140625 -2.15625 L 4.140625 -41.046875 C 4.140625 -41.804688 4.304688 -42.351562 4.640625 -42.6875 C 4.984375 -43.03125 5.535156 -43.203125 6.296875 -43.203125 L 15.953125 -43.203125 C 16.597656 -43.203125 17.128906 -43.0625 17.546875 -42.78125 C 17.972656 -42.5 18.363281 -42.039062 18.71875 -41.40625 L 24.125 -31.625 C 24.320312 -31.257812 24.488281 -30.992188 24.625 -30.828125 C 24.769531 -30.671875 24.960938 -30.59375 25.203125 -30.59375 L 25.734375 -30.59375 C 25.972656 -30.59375 26.160156 -30.671875 26.296875 -30.828125 C 26.441406 -30.992188 26.613281 -31.257812 26.8125 -31.625 L 32.15625 -41.40625 C 32.519531 -42.039062 32.910156 -42.5 33.328125 -42.78125 C 33.742188 -43.0625 34.273438 -43.203125 34.921875 -43.203125 L 44.640625 -43.203125 C 45.398438 -43.203125 45.945312 -43.03125 46.28125 -42.6875 C 46.625 -42.351562 46.796875 -41.804688 46.796875 -41.046875 L 46.796875 -2.15625 C 46.796875 -1.394531 46.625 -0.84375 46.28125 -0.5 C 45.945312 -0.164062 45.398438 0 44.640625 0 L 35.40625 0 C 34.644531 0 34.09375 -0.164062 33.75 -0.5 C 33.40625 -0.84375 33.234375 -1.394531 33.234375 -2.15625 L 33.234375 -23.28125 L 29.703125 -16.734375 C 29.335938 -16.054688 28.90625 -15.566406 28.40625 -15.265625 C 27.90625 -14.960938 27.273438 -14.8125 26.515625 -14.8125 L 24.125 -14.8125 C 23.363281 -14.8125 22.734375 -14.960938 22.234375 -15.265625 C 21.734375 -15.566406 21.300781 -16.054688 20.9375 -16.734375 L 17.40625 -23.28125 L 17.40625 -2.15625 C 17.40625 -1.394531 17.234375 -0.84375 16.890625 -0.5 C 16.546875 -0.164062 15.992188 0 15.234375 0 Z M 15.234375 0 "/>
            </g>
        </g>
    </g>
    <g fill="#ff00ff" fill-opacity="1">
        <g transform="translate(472.614696, 378.131227)">
            <g>
                <path d="M 19.796875 -30.59375 L 16.984375 -21.484375 L 26.40625 -21.484375 L 23.578125 -30.59375 C 23.421875 -30.957031 23.25 -31.21875 23.0625 -31.375 C 22.882812 -31.539062 22.675781 -31.625 22.4375 -31.625 L 20.9375 -31.625 C 20.695312 -31.625 20.488281 -31.539062 20.3125 -31.375 C 20.132812 -31.21875 19.960938 -30.957031 19.796875 -30.59375 Z M 16.375 -2.15625 C 16.375 -1.394531 16.203125 -0.84375 15.859375 -0.5 C 15.523438 -0.164062 14.976562 0 14.21875 0 L 5.40625 0 C 4.644531 0 4.09375 -0.164062 3.75 -0.5 C 3.40625 -0.84375 3.234375 -1.394531 3.234375 -2.15625 L 3.234375 -18 C 3.234375 -19.195312 3.421875 -20.578125 3.796875 -22.140625 C 4.179688 -23.703125 4.773438 -25.519531 5.578125 -27.59375 L 10.796875 -41.21875 C 11.035156 -41.894531 11.40625 -42.394531 11.90625 -42.71875 C 12.40625 -43.039062 13.054688 -43.203125 13.859375 -43.203125 L 30 -43.203125 C 30.757812 -43.203125 31.390625 -43.039062 31.890625 -42.71875 C 32.390625 -42.394531 32.757812 -41.894531 33 -41.21875 L 38.21875 -27.59375 C 39.019531 -25.519531 39.609375 -23.703125 39.984375 -22.140625 C 40.367188 -20.578125 40.5625 -19.195312 40.5625 -18 L 40.5625 -2.15625 C 40.5625 -1.394531 40.390625 -0.84375 40.046875 -0.5 C 39.710938 -0.164062 39.164062 0 38.40625 0 L 29.34375 0 C 28.539062 0 27.945312 -0.164062 27.5625 -0.5 C 27.1875 -0.84375 27 -1.394531 27 -2.15625 L 27 -10.5625 L 16.375 -10.5625 Z M 16.375 -2.15625 "/>
            </g>
        </g>
    </g>
    <g fill="#ff00ff" fill-opacity="1">
        <g transform="translate(516.414665, 378.131227)">
            <g>
                <path d="M 15.296875 0 L 6.296875 0 C 5.535156 0 4.984375 -0.164062 4.640625 -0.5 C 4.304688 -0.84375 4.140625 -1.394531 4.140625 -2.15625 L 4.140625 -41.046875 C 4.140625 -41.804688 4.304688 -42.351562 4.640625 -42.6875 C 4.984375 -43.03125 5.535156 -43.203125 6.296875 -43.203125 L 12.546875 -43.203125 C 13.304688 -43.203125 13.953125 -43.082031 14.484375 -42.84375 C 15.023438 -42.601562 15.554688 -42.179688 16.078125 -41.578125 L 27.71875 -28.265625 L 27.71875 -41.046875 C 27.71875 -41.804688 27.882812 -42.351562 28.21875 -42.6875 C 28.5625 -43.03125 29.113281 -43.203125 29.875 -43.203125 L 38.875 -43.203125 C 39.632812 -43.203125 40.1875 -43.03125 40.53125 -42.6875 C 40.875 -42.351562 41.046875 -41.804688 41.046875 -41.046875 L 41.046875 -2.15625 C 41.046875 -1.394531 40.875 -0.84375 40.53125 -0.5 C 40.1875 -0.164062 39.632812 0 38.875 0 L 29.875 0 C 29.113281 0 28.5625 -0.164062 28.21875 -0.5 C 27.882812 -0.84375 27.71875 -1.394531 27.71875 -2.15625 L 27.71875 -9.546875 L 17.453125 -21.953125 L 17.453125 -2.15625 C 17.453125 -1.394531 17.28125 -0.84375 16.9375 -0.5 C 16.601562 -0.164062 16.054688 0 15.296875 0 Z M 15.296875 0 "/>
            </g>
        </g>
    </g>
    <g fill="#00ffff" fill-opacity="1">
        <g transform="translate(247.801459, 375.21566)">
            <g>
                <path d="M 15.59375 0 L 6.296875 0 C 5.535156 0 4.984375 -0.164062 4.640625 -0.5 C 4.304688 -0.84375 4.140625 -1.394531 4.140625 -2.15625 L 4.140625 -41.046875 C 4.140625 -41.804688 4.304688 -42.351562 4.640625 -42.6875 C 4.984375 -43.03125 5.535156 -43.203125 6.296875 -43.203125 L 15.59375 -43.203125 C 16.351562 -43.203125 16.90625 -43.03125 17.25 -42.6875 C 17.59375 -42.351562 17.765625 -41.804688 17.765625 -41.046875 L 17.765625 -28.015625 L 27.78125 -28.015625 L 27.78125 -41.046875 C 27.78125 -41.804688 27.945312 -42.351562 28.28125 -42.6875 C 28.625 -43.03125 29.175781 -43.203125 29.9375 -43.203125 L 39.234375 -43.203125 C 39.992188 -43.203125 40.546875 -43.03125 40.890625 -42.6875 C 41.234375 -42.351562 41.40625 -41.804688 41.40625 -41.046875 L 41.40625 -2.15625 C 41.40625 -1.394531 41.234375 -0.84375 40.890625 -0.5 C 40.546875 -0.164062 39.992188 0 39.234375 0 L 29.9375 0 C 29.175781 0 28.625 -0.164062 28.28125 -0.5 C 27.945312 -0.84375 27.78125 -1.394531 27.78125 -2.15625 L 27.78125 -15.484375 L 17.765625 -15.484375 L 17.765625 -2.15625 C 17.765625 -1.394531 17.59375 -0.84375 17.25 -0.5 C 16.90625 -0.164062 16.351562 0 15.59375 0 Z M 15.59375 0 "/>
            </g>
        </g>
    </g>
    <g fill="#00ffff" fill-opacity="1">
        <g transform="translate(293.34141, 375.21566)">
            <g>
                <path d="M 19.796875 -30.59375 L 16.984375 -21.484375 L 26.40625 -21.484375 L 23.578125 -30.59375 C 23.421875 -30.957031 23.25 -31.21875 23.0625 -31.375 C 22.882812 -31.539062 22.675781 -31.625 22.4375 -31.625 L 20.9375 -31.625 C 20.695312 -31.625 20.488281 -31.539062 20.3125 -31.375 C 20.132812 -31.21875 19.960938 -30.957031 19.796875 -30.59375 Z M 16.375 -2.15625 C 16.375 -1.394531 16.203125 -0.84375 15.859375 -0.5 C 15.523438 -0.164062 14.976562 0 14.21875 0 L 5.40625 0 C 4.644531 0 4.09375 -0.164062 3.75 -0.5 C 3.40625 -0.84375 3.234375 -1.394531 3.234375 -2.15625 L 3.234375 -18 C 3.234375 -19.195312 3.421875 -20.578125 3.796875 -22.140625 C 4.179688 -23.703125 4.773438 -25.519531 5.578125 -27.59375 L 10.796875 -41.21875 C 11.035156 -41.894531 11.40625 -42.394531 11.90625 -42.71875 C 12.40625 -43.039062 13.054688 -43.203125 13.859375 -43.203125 L 30 -43.203125 C 30.757812 -43.203125 31.390625 -43.039062 31.890625 -42.71875 C 32.390625 -42.394531 32.757812 -41.894531 33 -41.21875 L 38.21875 -27.59375 C 39.019531 -25.519531 39.609375 -23.703125 39.984375 -22.140625 C 40.367188 -20.578125 40.5625 -19.195312 40.5625 -18 L 40.5625 -2.15625 C 40.5625 -1.394531 40.390625 -0.84375 40.046875 -0.5 C 39.710938 -0.164062 39.164062 0 38.40625 0 L 29.34375 0 C 28.539062 0 27.945312 -0.164062 27.5625 -0.5 C 27.1875 -0.84375 27 -1.394531 27 -2.15625 L 27 -10.5625 L 16.375 -10.5625 Z M 16.375 -2.15625 "/>
            </g>
        </g>
    </g>
    <g fill="#00ffff" fill-opacity="1">
        <g transform="translate(337.141368, 375.21566)">
            <g>
                <path d="M 15.296875 0 L 6.296875 0 C 5.535156 0 4.984375 -0.164062 4.640625 -0.5 C 4.304688 -0.84375 4.140625 -1.394531 4.140625 -2.15625 L 4.140625 -41.046875 C 4.140625 -41.804688 4.304688 -42.351562 4.640625 -42.6875 C 4.984375 -43.03125 5.535156 -43.203125 6.296875 -43.203125 L 12.546875 -43.203125 C 13.304688 -43.203125 13.953125 -43.082031 14.484375 -42.84375 C 15.023438 -42.601562 15.554688 -42.179688 16.078125 -41.578125 L 27.71875 -28.265625 L 27.71875 -41.046875 C 27.71875 -41.804688 27.882812 -42.351562 28.21875 -42.6875 C 28.5625 -43.03125 29.113281 -43.203125 29.875 -43.203125 L 38.875 -43.203125 C 39.632812 -43.203125 40.1875 -43.03125 40.53125 -42.6875 C 40.875 -42.351562 41.046875 -41.804688 41.046875 -41.046875 L 41.046875 -2.15625 C 41.046875 -1.394531 40.875 -0.84375 40.53125 -0.5 C 40.1875 -0.164062 39.632812 0 38.875 0 L 29.875 0 C 29.113281 0 28.5625 -0.164062 28.21875 -0.5 C 27.882812 -0.84375 27.71875 -1.394531 27.71875 -2.15625 L 27.71875 -9.546875 L 17.453125 -21.953125 L 17.453125 -2.15625 C 17.453125 -1.394531 17.28125 -0.84375 16.9375 -0.5 C 16.601562 -0.164062 16.054688 0 15.296875 0 Z M 15.296875 0 "/>
            </g>
        </g>
    </g>
    <g fill="#00ffff" fill-opacity="1">
        <g transform="translate(382.321322, 375.21566)">
            <g>
                <path d="M 37.140625 0 L 18.234375 0 C 13.234375 0 9.523438 -1 7.109375 -3 C 4.691406 -5 3.484375 -8.078125 3.484375 -12.234375 L 3.484375 -30.953125 C 3.484375 -35.117188 4.691406 -38.203125 7.109375 -40.203125 C 9.523438 -42.203125 13.234375 -43.203125 18.234375 -43.203125 L 33.234375 -43.203125 C 33.992188 -43.203125 34.546875 -43.03125 34.890625 -42.6875 C 35.234375 -42.351562 35.40625 -41.804688 35.40625 -41.046875 L 35.40625 -33.78125 C 35.40625 -33.019531 35.234375 -32.46875 34.890625 -32.125 C 34.546875 -31.789062 33.992188 -31.625 33.234375 -31.625 L 20.765625 -31.625 C 19.523438 -31.625 18.601562 -31.375 18 -30.875 C 17.394531 -30.375 17.09375 -29.625 17.09375 -28.625 L 17.09375 -14.28125 C 17.09375 -13.28125 17.320312 -12.539062 17.78125 -12.0625 C 18.25 -11.582031 18.941406 -11.34375 19.859375 -11.34375 L 25.6875 -11.34375 L 25.6875 -20.703125 C 25.6875 -21.460938 25.851562 -22.007812 26.1875 -22.34375 C 26.53125 -22.6875 27.082031 -22.859375 27.84375 -22.859375 L 37.140625 -22.859375 C 37.898438 -22.859375 38.445312 -22.6875 38.78125 -22.34375 C 39.125 -22.007812 39.296875 -21.460938 39.296875 -20.703125 L 39.296875 -2.15625 C 39.296875 -1.394531 39.125 -0.84375 38.78125 -0.5 C 38.445312 -0.164062 37.898438 0 37.140625 0 Z M 37.140625 0 "/>
            </g>
        </g>
    </g>
    <g fill="#00ffff" fill-opacity="1">
        <g transform="translate(424.801284, 375.21566)">
            <g>
                <path d="M 15.234375 0 L 6.296875 0 C 5.535156 0 4.984375 -0.164062 4.640625 -0.5 C 4.304688 -0.84375 4.140625 -1.394531 4.140625 -2.15625 L 4.140625 -41.046875 C 4.140625 -41.804688 4.304688 -42.351562 4.640625 -42.6875 C 4.984375 -43.03125 5.535156 -43.203125 6.296875 -43.203125 L 15.953125 -43.203125 C 16.597656 -43.203125 17.128906 -43.0625 17.546875 -42.78125 C 17.972656 -42.5 18.363281 -42.039062 18.71875 -41.40625 L 24.125 -31.625 C 24.320312 -31.257812 24.488281 -30.992188 24.625 -30.828125 C 24.769531 -30.671875 24.960938 -30.59375 25.203125 -30.59375 L 25.734375 -30.59375 C 25.972656 -30.59375 26.160156 -30.671875 26.296875 -30.828125 C 26.441406 -30.992188 26.613281 -31.257812 26.8125 -31.625 L 32.15625 -41.40625 C 32.519531 -42.039062 32.910156 -42.5 33.328125 -42.78125 C 33.742188 -43.0625 34.273438 -43.203125 34.921875 -43.203125 L 44.640625 -43.203125 C 45.398438 -43.203125 45.945312 -43.03125 46.28125 -42.6875 C 46.625 -42.351562 46.796875 -41.804688 46.796875 -41.046875 L 46.796875 -2.15625 C 46.796875 -1.394531 46.625 -0.84375 46.28125 -0.5 C 45.945312 -0.164062 45.398438 0 44.640625 0 L 35.40625 0 C 34.644531 0 34.09375 -0.164062 33.75 -0.5 C 33.40625 -0.84375 33.234375 -1.394531 33.234375 -2.15625 L 33.234375 -23.28125 L 29.703125 -16.734375 C 29.335938 -16.054688 28.90625 -15.566406 28.40625 -15.265625 C 27.90625 -14.960938 27.273438 -14.8125 26.515625 -14.8125 L 24.125 -14.8125 C 23.363281 -14.8125 22.734375 -14.960938 22.234375 -15.265625 C 21.734375 -15.566406 21.300781 -16.054688 20.9375 -16.734375 L 17.40625 -23.28125 L 17.40625 -2.15625 C 17.40625 -1.394531 17.234375 -0.84375 16.890625 -0.5 C 16.546875 -0.164062 15.992188 0 15.234375 0 Z M 15.234375 0 "/>
            </g>
        </g>
    </g>
    <g fill="#00ffff" fill-opacity="1">
        <g transform="translate(475.741243, 375.21566)">
            <g>
                <path d="M 19.796875 -30.59375 L 16.984375 -21.484375 L 26.40625 -21.484375 L 23.578125 -30.59375 C 23.421875 -30.957031 23.25 -31.21875 23.0625 -31.375 C 22.882812 -31.539062 22.675781 -31.625 22.4375 -31.625 L 20.9375 -31.625 C 20.695312 -31.625 20.488281 -31.539062 20.3125 -31.375 C 20.132812 -31.21875 19.960938 -30.957031 19.796875 -30.59375 Z M 16.375 -2.15625 C 16.375 -1.394531 16.203125 -0.84375 15.859375 -0.5 C 15.523438 -0.164062 14.976562 0 14.21875 0 L 5.40625 0 C 4.644531 0 4.09375 -0.164062 3.75 -0.5 C 3.40625 -0.84375 3.234375 -1.394531 3.234375 -2.15625 L 3.234375 -18 C 3.234375 -19.195312 3.421875 -20.578125 3.796875 -22.140625 C 4.179688 -23.703125 4.773438 -25.519531 5.578125 -27.59375 L 10.796875 -41.21875 C 11.035156 -41.894531 11.40625 -42.394531 11.90625 -42.71875 C 12.40625 -43.039062 13.054688 -43.203125 13.859375 -43.203125 L 30 -43.203125 C 30.757812 -43.203125 31.390625 -43.039062 31.890625 -42.71875 C 32.390625 -42.394531 32.757812 -41.894531 33 -41.21875 L 38.21875 -27.59375 C 39.019531 -25.519531 39.609375 -23.703125 39.984375 -22.140625 C 40.367188 -20.578125 40.5625 -19.195312 40.5625 -18 L 40.5625 -2.15625 C 40.5625 -1.394531 40.390625 -0.84375 40.046875 -0.5 C 39.710938 -0.164062 39.164062 0 38.40625 0 L 29.34375 0 C 28.539062 0 27.945312 -0.164062 27.5625 -0.5 C 27.1875 -0.84375 27 -1.394531 27 -2.15625 L 27 -10.5625 L 16.375 -10.5625 Z M 16.375 -2.15625 "/>
            </g>
        </g>
    </g>
    <g fill="#00ffff" fill-opacity="1">
        <g transform="translate(519.541212, 375.21566)">
            <g>
                <path d="M 15.296875 0 L 6.296875 0 C 5.535156 0 4.984375 -0.164062 4.640625 -0.5 C 4.304688 -0.84375 4.140625 -1.394531 4.140625 -2.15625 L 4.140625 -41.046875 C 4.140625 -41.804688 4.304688 -42.351562 4.640625 -42.6875 C 4.984375 -43.03125 5.535156 -43.203125 6.296875 -43.203125 L 12.546875 -43.203125 C 13.304688 -43.203125 13.953125 -43.082031 14.484375 -42.84375 C 15.023438 -42.601562 15.554688 -42.179688 16.078125 -41.578125 L 27.71875 -28.265625 L 27.71875 -41.046875 C 27.71875 -41.804688 27.882812 -42.351562 28.21875 -42.6875 C 28.5625 -43.03125 29.113281 -43.203125 29.875 -43.203125 L 38.875 -43.203125 C 39.632812 -43.203125 40.1875 -43.03125 40.53125 -42.6875 C 40.875 -42.351562 41.046875 -41.804688 41.046875 -41.046875 L 41.046875 -2.15625 C 41.046875 -1.394531 40.875 -0.84375 40.53125 -0.5 C 40.1875 -0.164062 39.632812 0 38.875 0 L 29.875 0 C 29.113281 0 28.5625 -0.164062 28.21875 -0.5 C 27.882812 -0.84375 27.71875 -1.394531 27.71875 -2.15625 L 27.71875 -9.546875 L 17.453125 -21.953125 L 17.453125 -2.15625 C 17.453125 -1.394531 17.28125 -0.84375 16.9375 -0.5 C 16.601562 -0.164062 16.054688 0 15.296875 0 Z M 15.296875 0 "/>
            </g>
        </g>
    </g>
    <g fill="#7843e6" fill-opacity="1">
        <g transform="translate(246.238179, 376.673444)">
            <g>
                <path d="M 15.59375 0 L 6.296875 0 C 5.535156 0 4.984375 -0.164062 4.640625 -0.5 C 4.304688 -0.84375 4.140625 -1.394531 4.140625 -2.15625 L 4.140625 -41.046875 C 4.140625 -41.804688 4.304688 -42.351562 4.640625 -42.6875 C 4.984375 -43.03125 5.535156 -43.203125 6.296875 -43.203125 L 15.59375 -43.203125 C 16.351562 -43.203125 16.90625 -43.03125 17.25 -42.6875 C 17.59375 -42.351562 17.765625 -41.804688 17.765625 -41.046875 L 17.765625 -28.015625 L 27.78125 -28.015625 L 27.78125 -41.046875 C 27.78125 -41.804688 27.945312 -42.351562 28.28125 -42.6875 C 28.625 -43.03125 29.175781 -43.203125 29.9375 -43.203125 L 39.234375 -43.203125 C 39.992188 -43.203125 40.546875 -43.03125 40.890625 -42.6875 C 41.234375 -42.351562 41.40625 -41.804688 41.40625 -41.046875 L 41.40625 -2.15625 C 41.40625 -1.394531 41.234375 -0.84375 40.890625 -0.5 C 40.546875 -0.164062 39.992188 0 39.234375 0 L 29.9375 0 C 29.175781 0 28.625 -0.164062 28.28125 -0.5 C 27.945312 -0.84375 27.78125 -1.394531 27.78125 -2.15625 L 27.78125 -15.484375 L 17.765625 -15.484375 L 17.765625 -2.15625 C 17.765625 -1.394531 17.59375 -0.84375 17.25 -0.5 C 16.90625 -0.164062 16.351562 0 15.59375 0 Z M 15.59375 0 "/>
            </g>
        </g>
    </g>
    <g fill="#7843e6" fill-opacity="1">
        <g transform="translate(291.77813, 376.673444)">
            <g>
                <path d="M 19.796875 -30.59375 L 16.984375 -21.484375 L 26.40625 -21.484375 L 23.578125 -30.59375 C 23.421875 -30.957031 23.25 -31.21875 23.0625 -31.375 C 22.882812 -31.539062 22.675781 -31.625 22.4375 -31.625 L 20.9375 -31.625 C 20.695312 -31.625 20.488281 -31.539062 20.3125 -31.375 C 20.132812 -31.21875 19.960938 -30.957031 19.796875 -30.59375 Z M 16.375 -2.15625 C 16.375 -1.394531 16.203125 -0.84375 15.859375 -0.5 C 15.523438 -0.164062 14.976562 0 14.21875 0 L 5.40625 0 C 4.644531 0 4.09375 -0.164062 3.75 -0.5 C 3.40625 -0.84375 3.234375 -1.394531 3.234375 -2.15625 L 3.234375 -18 C 3.234375 -19.195312 3.421875 -20.578125 3.796875 -22.140625 C 4.179688 -23.703125 4.773438 -25.519531 5.578125 -27.59375 L 10.796875 -41.21875 C 11.035156 -41.894531 11.40625 -42.394531 11.90625 -42.71875 C 12.40625 -43.039062 13.054688 -43.203125 13.859375 -43.203125 L 30 -43.203125 C 30.757812 -43.203125 31.390625 -43.039062 31.890625 -42.71875 C 32.390625 -42.394531 32.757812 -41.894531 33 -41.21875 L 38.21875 -27.59375 C 39.019531 -25.519531 39.609375 -23.703125 39.984375 -22.140625 C 40.367188 -20.578125 40.5625 -19.195312 40.5625 -18 L 40.5625 -2.15625 C 40.5625 -1.394531 40.390625 -0.84375 40.046875 -0.5 C 39.710938 -0.164062 39.164062 0 38.40625 0 L 29.34375 0 C 28.539062 0 27.945312 -0.164062 27.5625 -0.5 C 27.1875 -0.84375 27 -1.394531 27 -2.15625 L 27 -10.5625 L 16.375 -10.5625 Z M 16.375 -2.15625 "/>
            </g>
        </g>
    </g>
    <g fill="#7843e6" fill-opacity="1">
        <g transform="translate(335.578087, 376.673444)">
            <g>
                <path d="M 15.296875 0 L 6.296875 0 C 5.535156 0 4.984375 -0.164062 4.640625 -0.5 C 4.304688 -0.84375 4.140625 -1.394531 4.140625 -2.15625 L 4.140625 -41.046875 C 4.140625 -41.804688 4.304688 -42.351562 4.640625 -42.6875 C 4.984375 -43.03125 5.535156 -43.203125 6.296875 -43.203125 L 12.546875 -43.203125 C 13.304688 -43.203125 13.953125 -43.082031 14.484375 -42.84375 C 15.023438 -42.601562 15.554688 -42.179688 16.078125 -41.578125 L 27.71875 -28.265625 L 27.71875 -41.046875 C 27.71875 -41.804688 27.882812 -42.351562 28.21875 -42.6875 C 28.5625 -43.03125 29.113281 -43.203125 29.875 -43.203125 L 38.875 -43.203125 C 39.632812 -43.203125 40.1875 -43.03125 40.53125 -42.6875 C 40.875 -42.351562 41.046875 -41.804688 41.046875 -41.046875 L 41.046875 -2.15625 C 41.046875 -1.394531 40.875 -0.84375 40.53125 -0.5 C 40.1875 -0.164062 39.632812 0 38.875 0 L 29.875 0 C 29.113281 0 28.5625 -0.164062 28.21875 -0.5 C 27.882812 -0.84375 27.71875 -1.394531 27.71875 -2.15625 L 27.71875 -9.546875 L 17.453125 -21.953125 L 17.453125 -2.15625 C 17.453125 -1.394531 17.28125 -0.84375 16.9375 -0.5 C 16.601562 -0.164062 16.054688 0 15.296875 0 Z M 15.296875 0 "/>
            </g>
        </g>
    </g>
    <g fill="#7843e6" fill-opacity="1">
        <g transform="translate(380.758041, 376.673444)">
            <g>
                <path d="M 37.140625 0 L 18.234375 0 C 13.234375 0 9.523438 -1 7.109375 -3 C 4.691406 -5 3.484375 -8.078125 3.484375 -12.234375 L 3.484375 -30.953125 C 3.484375 -35.117188 4.691406 -38.203125 7.109375 -40.203125 C 9.523438 -42.203125 13.234375 -43.203125 18.234375 -43.203125 L 33.234375 -43.203125 C 33.992188 -43.203125 34.546875 -43.03125 34.890625 -42.6875 C 35.234375 -42.351562 35.40625 -41.804688 35.40625 -41.046875 L 35.40625 -33.78125 C 35.40625 -33.019531 35.234375 -32.46875 34.890625 -32.125 C 34.546875 -31.789062 33.992188 -31.625 33.234375 -31.625 L 20.765625 -31.625 C 19.523438 -31.625 18.601562 -31.375 18 -30.875 C 17.394531 -30.375 17.09375 -29.625 17.09375 -28.625 L 17.09375 -14.28125 C 17.09375 -13.28125 17.320312 -12.539062 17.78125 -12.0625 C 18.25 -11.582031 18.941406 -11.34375 19.859375 -11.34375 L 25.6875 -11.34375 L 25.6875 -20.703125 C 25.6875 -21.460938 25.851562 -22.007812 26.1875 -22.34375 C 26.53125 -22.6875 27.082031 -22.859375 27.84375 -22.859375 L 37.140625 -22.859375 C 37.898438 -22.859375 38.445312 -22.6875 38.78125 -22.34375 C 39.125 -22.007812 39.296875 -21.460938 39.296875 -20.703125 L 39.296875 -2.15625 C 39.296875 -1.394531 39.125 -0.84375 38.78125 -0.5 C 38.445312 -0.164062 37.898438 0 37.140625 0 Z M 37.140625 0 "/>
            </g>
        </g>
    </g>
    <g fill="#7843e6" fill-opacity="1">
        <g transform="translate(423.238003, 376.673444)">
            <g>
                <path d="M 15.234375 0 L 6.296875 0 C 5.535156 0 4.984375 -0.164062 4.640625 -0.5 C 4.304688 -0.84375 4.140625 -1.394531 4.140625 -2.15625 L 4.140625 -41.046875 C 4.140625 -41.804688 4.304688 -42.351562 4.640625 -42.6875 C 4.984375 -43.03125 5.535156 -43.203125 6.296875 -43.203125 L 15.953125 -43.203125 C 16.597656 -43.203125 17.128906 -43.0625 17.546875 -42.78125 C 17.972656 -42.5 18.363281 -42.039062 18.71875 -41.40625 L 24.125 -31.625 C 24.320312 -31.257812 24.488281 -30.992188 24.625 -30.828125 C 24.769531 -30.671875 24.960938 -30.59375 25.203125 -30.59375 L 25.734375 -30.59375 C 25.972656 -30.59375 26.160156 -30.671875 26.296875 -30.828125 C 26.441406 -30.992188 26.613281 -31.257812 26.8125 -31.625 L 32.15625 -41.40625 C 32.519531 -42.039062 32.910156 -42.5 33.328125 -42.78125 C 33.742188 -43.0625 34.273438 -43.203125 34.921875 -43.203125 L 44.640625 -43.203125 C 45.398438 -43.203125 45.945312 -43.03125 46.28125 -42.6875 C 46.625 -42.351562 46.796875 -41.804688 46.796875 -41.046875 L 46.796875 -2.15625 C 46.796875 -1.394531 46.625 -0.84375 46.28125 -0.5 C 45.945312 -0.164062 45.398438 0 44.640625 0 L 35.40625 0 C 34.644531 0 34.09375 -0.164062 33.75 -0.5 C 33.40625 -0.84375 33.234375 -1.394531 33.234375 -2.15625 L 33.234375 -23.28125 L 29.703125 -16.734375 C 29.335938 -16.054688 28.90625 -15.566406 28.40625 -15.265625 C 27.90625 -14.960938 27.273438 -14.8125 26.515625 -14.8125 L 24.125 -14.8125 C 23.363281 -14.8125 22.734375 -14.960938 22.234375 -15.265625 C 21.734375 -15.566406 21.300781 -16.054688 20.9375 -16.734375 L 17.40625 -23.28125 L 17.40625 -2.15625 C 17.40625 -1.394531 17.234375 -0.84375 16.890625 -0.5 C 16.546875 -0.164062 15.992188 0 15.234375 0 Z M 15.234375 0 "/>
            </g>
        </g>
    </g>
    <g fill="#7843e6" fill-opacity="1">
        <g transform="translate(474.177963, 376.673444)">
            <g>
                <path d="M 19.796875 -30.59375 L 16.984375 -21.484375 L 26.40625 -21.484375 L 23.578125 -30.59375 C 23.421875 -30.957031 23.25 -31.21875 23.0625 -31.375 C 22.882812 -31.539062 22.675781 -31.625 22.4375 -31.625 L 20.9375 -31.625 C 20.695312 -31.625 20.488281 -31.539062 20.3125 -31.375 C 20.132812 -31.21875 19.960938 -30.957031 19.796875 -30.59375 Z M 16.375 -2.15625 C 16.375 -1.394531 16.203125 -0.84375 15.859375 -0.5 C 15.523438 -0.164062 14.976562 0 14.21875 0 L 5.40625 0 C 4.644531 0 4.09375 -0.164062 3.75 -0.5 C 3.40625 -0.84375 3.234375 -1.394531 3.234375 -2.15625 L 3.234375 -18 C 3.234375 -19.195312 3.421875 -20.578125 3.796875 -22.140625 C 4.179688 -23.703125 4.773438 -25.519531 5.578125 -27.59375 L 10.796875 -41.21875 C 11.035156 -41.894531 11.40625 -42.394531 11.90625 -42.71875 C 12.40625 -43.039062 13.054688 -43.203125 13.859375 -43.203125 L 30 -43.203125 C 30.757812 -43.203125 31.390625 -43.039062 31.890625 -42.71875 C 32.390625 -42.394531 32.757812 -41.894531 33 -41.21875 L 38.21875 -27.59375 C 39.019531 -25.519531 39.609375 -23.703125 39.984375 -22.140625 C 40.367188 -20.578125 40.5625 -19.195312 40.5625 -18 L 40.5625 -2.15625 C 40.5625 -1.394531 40.390625 -0.84375 40.046875 -0.5 C 39.710938 -0.164062 39.164062 0 38.40625 0 L 29.34375 0 C 28.539062 0 27.945312 -0.164062 27.5625 -0.5 C 27.1875 -0.84375 27 -1.394531 27 -2.15625 L 27 -10.5625 L 16.375 -10.5625 Z M 16.375 -2.15625 "/>
            </g>
        </g>
    </g>
    <g fill="#7843e6" fill-opacity="1">
        <g transform="translate(517.977931, 376.673444)">
            <g>
                <path d="M 15.296875 0 L 6.296875 0 C 5.535156 0 4.984375 -0.164062 4.640625 -0.5 C 4.304688 -0.84375 4.140625 -1.394531 4.140625 -2.15625 L 4.140625 -41.046875 C 4.140625 -41.804688 4.304688 -42.351562 4.640625 -42.6875 C 4.984375 -43.03125 5.535156 -43.203125 6.296875 -43.203125 L 12.546875 -43.203125 C 13.304688 -43.203125 13.953125 -43.082031 14.484375 -42.84375 C 15.023438 -42.601562 15.554688 -42.179688 16.078125 -41.578125 L 27.71875 -28.265625 L 27.71875 -41.046875 C 27.71875 -41.804688 27.882812 -42.351562 28.21875 -42.6875 C 28.5625 -43.03125 29.113281 -43.203125 29.875 -43.203125 L 38.875 -43.203125 C 39.632812 -43.203125 40.1875 -43.03125 40.53125 -42.6875 C 40.875 -42.351562 41.046875 -41.804688 41.046875 -41.046875 L 41.046875 -2.15625 C 41.046875 -1.394531 40.875 -0.84375 40.53125 -0.5 C 40.1875 -0.164062 39.632812 0 38.875 0 L 29.875 0 C 29.113281 0 28.5625 -0.164062 28.21875 -0.5 C 27.882812 -0.84375 27.71875 -1.394531 27.71875 -2.15625 L 27.71875 -9.546875 L 17.453125 -21.953125 L 17.453125 -2.15625 C 17.453125 -1.394531 17.28125 -0.84375 16.9375 -0.5 C 16.601562 -0.164062 16.054688 0 15.296875 0 Z M 15.296875 0 "/>
            </g>
        </g>
    </g>
    <g fill="#ff00ff" fill-opacity="1">
        <g transform="translate(254.838072, 318.681514)">
            <g>
                <path d="M 20.453125 0 L 12.34375 0 C 11.71875 0 11.257812 -0.140625 10.96875 -0.421875 C 10.6875 -0.703125 10.546875 -1.160156 10.546875 -1.796875 L 10.546875 -26.34375 L 3.203125 -26.34375 C 2.566406 -26.34375 2.109375 -26.484375 1.828125 -26.765625 C 1.546875 -27.054688 1.40625 -27.519531 1.40625 -28.15625 L 1.40625 -34.203125 C 1.40625 -34.835938 1.546875 -35.296875 1.828125 -35.578125 C 2.109375 -35.859375 2.566406 -36 3.203125 -36 L 29.59375 -36 C 30.226562 -36 30.6875 -35.859375 30.96875 -35.578125 C 31.257812 -35.296875 31.40625 -34.835938 31.40625 -34.203125 L 31.40625 -28.15625 C 31.40625 -27.519531 31.257812 -27.054688 30.96875 -26.765625 C 30.6875 -26.484375 30.226562 -26.34375 29.59375 -26.34375 L 22.25 -26.34375 L 22.25 -1.796875 C 22.25 -1.160156 22.109375 -0.703125 21.828125 -0.421875 C 21.546875 -0.140625 21.085938 0 20.453125 0 Z M 20.453125 0 "/>
            </g>
        </g>
    </g>
    <g fill="#ff00ff" fill-opacity="1">
        <g transform="translate(287.632991, 318.681514)">
            <g>
                <path d="M 13 0 L 5.25 0 C 4.613281 0 4.15625 -0.140625 3.875 -0.421875 C 3.59375 -0.703125 3.453125 -1.160156 3.453125 -1.796875 L 3.453125 -34.203125 C 3.453125 -34.835938 3.59375 -35.296875 3.875 -35.578125 C 4.15625 -35.859375 4.613281 -36 5.25 -36 L 13 -36 C 13.632812 -36 14.09375 -35.859375 14.375 -35.578125 C 14.65625 -35.296875 14.796875 -34.835938 14.796875 -34.203125 L 14.796875 -23.34375 L 23.15625 -23.34375 L 23.15625 -34.203125 C 23.15625 -34.835938 23.296875 -35.296875 23.578125 -35.578125 C 23.859375 -35.859375 24.316406 -36 24.953125 -36 L 32.703125 -36 C 33.335938 -36 33.796875 -35.859375 34.078125 -35.578125 C 34.359375 -35.296875 34.5 -34.835938 34.5 -34.203125 L 34.5 -1.796875 C 34.5 -1.160156 34.359375 -0.703125 34.078125 -0.421875 C 33.796875 -0.140625 33.335938 0 32.703125 0 L 24.953125 0 C 24.316406 0 23.859375 -0.140625 23.578125 -0.421875 C 23.296875 -0.703125 23.15625 -1.160156 23.15625 -1.796875 L 23.15625 -12.90625 L 14.796875 -12.90625 L 14.796875 -1.796875 C 14.796875 -1.160156 14.65625 -0.703125 14.375 -0.421875 C 14.09375 -0.140625 13.632812 0 13 0 Z M 13 0 "/>
            </g>
        </g>
    </g>
    <g fill="#ff00ff" fill-opacity="1">
        <g transform="translate(325.57711, 318.681514)">
            <g>
                <path d="M 28.453125 0 L 5.25 0 C 4.613281 0 4.15625 -0.140625 3.875 -0.421875 C 3.59375 -0.703125 3.453125 -1.160156 3.453125 -1.796875 L 3.453125 -34.203125 C 3.453125 -34.835938 3.59375 -35.296875 3.875 -35.578125 C 4.15625 -35.859375 4.613281 -36 5.25 -36 L 28.453125 -36 C 29.085938 -36 29.546875 -35.859375 29.828125 -35.578125 C 30.109375 -35.296875 30.25 -34.835938 30.25 -34.203125 L 30.25 -28.34375 C 30.25 -27.71875 30.109375 -27.257812 29.828125 -26.96875 C 29.546875 -26.6875 29.085938 -26.546875 28.453125 -26.546875 L 14.65625 -26.546875 L 14.65625 -22.703125 L 24.40625 -22.703125 C 25.03125 -22.703125 25.484375 -22.554688 25.765625 -22.265625 C 26.054688 -21.984375 26.203125 -21.53125 26.203125 -20.90625 L 26.203125 -15.546875 C 26.203125 -14.910156 26.054688 -14.453125 25.765625 -14.171875 C 25.484375 -13.890625 25.03125 -13.75 24.40625 -13.75 L 14.65625 -13.75 L 14.65625 -9.453125 L 28.453125 -9.453125 C 29.085938 -9.453125 29.546875 -9.304688 29.828125 -9.015625 C 30.109375 -8.734375 30.25 -8.28125 30.25 -7.65625 L 30.25 -1.796875 C 30.25 -1.160156 30.109375 -0.703125 29.828125 -0.421875 C 29.546875 -0.140625 29.085938 0 28.453125 0 Z M 28.453125 0 "/>
            </g>
        </g>
    </g>
    <g fill="#00ffff" fill-opacity="1">
        <g transform="translate(257.443499, 316.251867)">
            <g>
                <path d="M 20.453125 0 L 12.34375 0 C 11.71875 0 11.257812 -0.140625 10.96875 -0.421875 C 10.6875 -0.703125 10.546875 -1.160156 10.546875 -1.796875 L 10.546875 -26.34375 L 3.203125 -26.34375 C 2.566406 -26.34375 2.109375 -26.484375 1.828125 -26.765625 C 1.546875 -27.054688 1.40625 -27.519531 1.40625 -28.15625 L 1.40625 -34.203125 C 1.40625 -34.835938 1.546875 -35.296875 1.828125 -35.578125 C 2.109375 -35.859375 2.566406 -36 3.203125 -36 L 29.59375 -36 C 30.226562 -36 30.6875 -35.859375 30.96875 -35.578125 C 31.257812 -35.296875 31.40625 -34.835938 31.40625 -34.203125 L 31.40625 -28.15625 C 31.40625 -27.519531 31.257812 -27.054688 30.96875 -26.765625 C 30.6875 -26.484375 30.226562 -26.34375 29.59375 -26.34375 L 22.25 -26.34375 L 22.25 -1.796875 C 22.25 -1.160156 22.109375 -0.703125 21.828125 -0.421875 C 21.546875 -0.140625 21.085938 0 20.453125 0 Z M 20.453125 0 "/>
            </g>
        </g>
    </g>
    <g fill="#00ffff" fill-opacity="1">
        <g transform="translate(290.238419, 316.251867)">
            <g>
                <path d="M 13 0 L 5.25 0 C 4.613281 0 4.15625 -0.140625 3.875 -0.421875 C 3.59375 -0.703125 3.453125 -1.160156 3.453125 -1.796875 L 3.453125 -34.203125 C 3.453125 -34.835938 3.59375 -35.296875 3.875 -35.578125 C 4.15625 -35.859375 4.613281 -36 5.25 -36 L 13 -36 C 13.632812 -36 14.09375 -35.859375 14.375 -35.578125 C 14.65625 -35.296875 14.796875 -34.835938 14.796875 -34.203125 L 14.796875 -23.34375 L 23.15625 -23.34375 L 23.15625 -34.203125 C 23.15625 -34.835938 23.296875 -35.296875 23.578125 -35.578125 C 23.859375 -35.859375 24.316406 -36 24.953125 -36 L 32.703125 -36 C 33.335938 -36 33.796875 -35.859375 34.078125 -35.578125 C 34.359375 -35.296875 34.5 -34.835938 34.5 -34.203125 L 34.5 -1.796875 C 34.5 -1.160156 34.359375 -0.703125 34.078125 -0.421875 C 33.796875 -0.140625 33.335938 0 32.703125 0 L 24.953125 0 C 24.316406 0 23.859375 -0.140625 23.578125 -0.421875 C 23.296875 -0.703125 23.15625 -1.160156 23.15625 -1.796875 L 23.15625 -12.90625 L 14.796875 -12.90625 L 14.796875 -1.796875 C 14.796875 -1.160156 14.65625 -0.703125 14.375 -0.421875 C 14.09375 -0.140625 13.632812 0 13 0 Z M 13 0 "/>
            </g>
        </g>
    </g>
    <g fill="#00ffff" fill-opacity="1">
        <g transform="translate(328.182538, 316.251867)">
            <g>
                <path d="M 28.453125 0 L 5.25 0 C 4.613281 0 4.15625 -0.140625 3.875 -0.421875 C 3.59375 -0.703125 3.453125 -1.160156 3.453125 -1.796875 L 3.453125 -34.203125 C 3.453125 -34.835938 3.59375 -35.296875 3.875 -35.578125 C 4.15625 -35.859375 4.613281 -36 5.25 -36 L 28.453125 -36 C 29.085938 -36 29.546875 -35.859375 29.828125 -35.578125 C 30.109375 -35.296875 30.25 -34.835938 30.25 -34.203125 L 30.25 -28.34375 C 30.25 -27.71875 30.109375 -27.257812 29.828125 -26.96875 C 29.546875 -26.6875 29.085938 -26.546875 28.453125 -26.546875 L 14.65625 -26.546875 L 14.65625 -22.703125 L 24.40625 -22.703125 C 25.03125 -22.703125 25.484375 -22.554688 25.765625 -22.265625 C 26.054688 -21.984375 26.203125 -21.53125 26.203125 -20.90625 L 26.203125 -15.546875 C 26.203125 -14.910156 26.054688 -14.453125 25.765625 -14.171875 C 25.484375 -13.890625 25.03125 -13.75 24.40625 -13.75 L 14.65625 -13.75 L 14.65625 -9.453125 L 28.453125 -9.453125 C 29.085938 -9.453125 29.546875 -9.304688 29.828125 -9.015625 C 30.109375 -8.734375 30.25 -8.28125 30.25 -7.65625 L 30.25 -1.796875 C 30.25 -1.160156 30.109375 -0.703125 29.828125 -0.421875 C 29.546875 -0.140625 29.085938 0 28.453125 0 Z M 28.453125 0 "/>
            </g>
        </g>
    </g>
    <g fill="#7843e6" fill-opacity="1">
        <g transform="translate(256.140787, 317.466692)">
            <g>
                <path d="M 20.453125 0 L 12.34375 0 C 11.71875 0 11.257812 -0.140625 10.96875 -0.421875 C 10.6875 -0.703125 10.546875 -1.160156 10.546875 -1.796875 L 10.546875 -26.34375 L 3.203125 -26.34375 C 2.566406 -26.34375 2.109375 -26.484375 1.828125 -26.765625 C 1.546875 -27.054688 1.40625 -27.519531 1.40625 -28.15625 L 1.40625 -34.203125 C 1.40625 -34.835938 1.546875 -35.296875 1.828125 -35.578125 C 2.109375 -35.859375 2.566406 -36 3.203125 -36 L 29.59375 -36 C 30.226562 -36 30.6875 -35.859375 30.96875 -35.578125 C 31.257812 -35.296875 31.40625 -34.835938 31.40625 -34.203125 L 31.40625 -28.15625 C 31.40625 -27.519531 31.257812 -27.054688 30.96875 -26.765625 C 30.6875 -26.484375 30.226562 -26.34375 29.59375 -26.34375 L 22.25 -26.34375 L 22.25 -1.796875 C 22.25 -1.160156 22.109375 -0.703125 21.828125 -0.421875 C 21.546875 -0.140625 21.085938 0 20.453125 0 Z M 20.453125 0 "/>
            </g>
        </g>
    </g>
    <g fill="#7843e6" fill-opacity="1">
        <g transform="translate(288.935706, 317.466692)">
            <g>
                <path d="M 13 0 L 5.25 0 C 4.613281 0 4.15625 -0.140625 3.875 -0.421875 C 3.59375 -0.703125 3.453125 -1.160156 3.453125 -1.796875 L 3.453125 -34.203125 C 3.453125 -34.835938 3.59375 -35.296875 3.875 -35.578125 C 4.15625 -35.859375 4.613281 -36 5.25 -36 L 13 -36 C 13.632812 -36 14.09375 -35.859375 14.375 -35.578125 C 14.65625 -35.296875 14.796875 -34.835938 14.796875 -34.203125 L 14.796875 -23.34375 L 23.15625 -23.34375 L 23.15625 -34.203125 C 23.15625 -34.835938 23.296875 -35.296875 23.578125 -35.578125 C 23.859375 -35.859375 24.316406 -36 24.953125 -36 L 32.703125 -36 C 33.335938 -36 33.796875 -35.859375 34.078125 -35.578125 C 34.359375 -35.296875 34.5 -34.835938 34.5 -34.203125 L 34.5 -1.796875 C 34.5 -1.160156 34.359375 -0.703125 34.078125 -0.421875 C 33.796875 -0.140625 33.335938 0 32.703125 0 L 24.953125 0 C 24.316406 0 23.859375 -0.140625 23.578125 -0.421875 C 23.296875 -0.703125 23.15625 -1.160156 23.15625 -1.796875 L 23.15625 -12.90625 L 14.796875 -12.90625 L 14.796875 -1.796875 C 14.796875 -1.160156 14.65625 -0.703125 14.375 -0.421875 C 14.09375 -0.140625 13.632812 0 13 0 Z M 13 0 "/>
            </g>
        </g>
    </g>
    <g fill="#7843e6" fill-opacity="1">
        <g transform="translate(326.879825, 317.466692)">
            <g>
                <path d="M 28.453125 0 L 5.25 0 C 4.613281 0 4.15625 -0.140625 3.875 -0.421875 C 3.59375 -0.703125 3.453125 -1.160156 3.453125 -1.796875 L 3.453125 -34.203125 C 3.453125 -34.835938 3.59375 -35.296875 3.875 -35.578125 C 4.15625 -35.859375 4.613281 -36 5.25 -36 L 28.453125 -36 C 29.085938 -36 29.546875 -35.859375 29.828125 -35.578125 C 30.109375 -35.296875 30.25 -34.835938 30.25 -34.203125 L 30.25 -28.34375 C 30.25 -27.71875 30.109375 -27.257812 29.828125 -26.96875 C 29.546875 -26.6875 29.085938 -26.546875 28.453125 -26.546875 L 14.65625 -26.546875 L 14.65625 -22.703125 L 24.40625 -22.703125 C 25.03125 -22.703125 25.484375 -22.554688 25.765625 -22.265625 C 26.054688 -21.984375 26.203125 -21.53125 26.203125 -20.90625 L 26.203125 -15.546875 C 26.203125 -14.910156 26.054688 -14.453125 25.765625 -14.171875 C 25.484375 -13.890625 25.03125 -13.75 24.40625 -13.75 L 14.65625 -13.75 L 14.65625 -9.453125 L 28.453125 -9.453125 C 29.085938 -9.453125 29.546875 -9.304688 29.828125 -9.015625 C 30.109375 -8.734375 30.25 -8.28125 30.25 -7.65625 L 30.25 -1.796875 C 30.25 -1.160156 30.109375 -0.703125 29.828125 -0.421875 C 29.546875 -0.140625 29.085938 0 28.453125 0 Z M 28.453125 0 "/>
            </g>
        </g>
    </g>
    <g fill="#ff00ff" fill-opacity="1">
        <g transform="translate(466.67364, 411.497201)">
            <g>
                <path d="M 18.5625 0 L 9.125 0 C 6.625 0 4.765625 -0.5 3.546875 -1.5 C 2.335938 -2.5 1.734375 -4.039062 1.734375 -6.125 L 1.734375 -15.484375 C 1.734375 -17.554688 2.335938 -19.09375 3.546875 -20.09375 C 4.765625 -21.09375 6.625 -21.59375 9.125 -21.59375 L 16.625 -21.59375 C 17 -21.59375 17.269531 -21.507812 17.4375 -21.34375 C 17.613281 -21.175781 17.703125 -20.898438 17.703125 -20.515625 L 17.703125 -16.890625 C 17.703125 -16.503906 17.613281 -16.226562 17.4375 -16.0625 C 17.269531 -15.894531 17 -15.8125 16.625 -15.8125 L 10.375 -15.8125 C 9.757812 -15.8125 9.300781 -15.6875 9 -15.4375 C 8.695312 -15.1875 8.546875 -14.8125 8.546875 -14.3125 L 8.546875 -7.140625 C 8.546875 -6.640625 8.660156 -6.269531 8.890625 -6.03125 C 9.117188 -5.789062 9.46875 -5.671875 9.9375 -5.671875 L 12.84375 -5.671875 L 12.84375 -10.34375 C 12.84375 -10.726562 12.925781 -11.003906 13.09375 -11.171875 C 13.257812 -11.347656 13.535156 -11.4375 13.921875 -11.4375 L 18.5625 -11.4375 C 18.945312 -11.4375 19.222656 -11.347656 19.390625 -11.171875 C 19.566406 -11.003906 19.65625 -10.726562 19.65625 -10.34375 L 19.65625 -1.078125 C 19.65625 -0.703125 19.566406 -0.425781 19.390625 -0.25 C 19.222656 -0.0820312 18.945312 0 18.5625 0 Z M 18.5625 0 "/>
            </g>
        </g>
    </g>
    <g fill="#ff00ff" fill-opacity="1">
        <g transform="translate(487.913621, 411.497201)">
            <g>
                <path d="M 9.90625 -15.296875 L 8.484375 -10.734375 L 13.203125 -10.734375 L 11.796875 -15.296875 C 11.710938 -15.472656 11.625 -15.601562 11.53125 -15.6875 C 11.445312 -15.769531 11.34375 -15.8125 11.21875 -15.8125 L 10.46875 -15.8125 C 10.351562 -15.8125 10.25 -15.769531 10.15625 -15.6875 C 10.0625 -15.601562 9.976562 -15.472656 9.90625 -15.296875 Z M 8.1875 -1.078125 C 8.1875 -0.703125 8.101562 -0.425781 7.9375 -0.25 C 7.769531 -0.0820312 7.492188 0 7.109375 0 L 2.703125 0 C 2.316406 0 2.039062 -0.0820312 1.875 -0.25 C 1.707031 -0.425781 1.625 -0.703125 1.625 -1.078125 L 1.625 -9 C 1.625 -9.601562 1.71875 -10.289062 1.90625 -11.0625 C 2.09375 -11.84375 2.390625 -12.753906 2.796875 -13.796875 L 5.40625 -20.609375 C 5.519531 -20.953125 5.703125 -21.203125 5.953125 -21.359375 C 6.203125 -21.515625 6.53125 -21.59375 6.9375 -21.59375 L 15 -21.59375 C 15.375 -21.59375 15.6875 -21.515625 15.9375 -21.359375 C 16.1875 -21.203125 16.375 -20.953125 16.5 -20.609375 L 19.109375 -13.796875 C 19.503906 -12.753906 19.796875 -11.84375 19.984375 -11.0625 C 20.179688 -10.289062 20.28125 -9.601562 20.28125 -9 L 20.28125 -1.078125 C 20.28125 -0.703125 20.191406 -0.425781 20.015625 -0.25 C 19.847656 -0.0820312 19.578125 0 19.203125 0 L 14.671875 0 C 14.265625 0 13.96875 -0.0820312 13.78125 -0.25 C 13.59375 -0.425781 13.5 -0.703125 13.5 -1.078125 L 13.5 -5.28125 L 8.1875 -5.28125 Z M 8.1875 -1.078125 "/>
            </g>
        </g>
    </g>
    <g fill="#ff00ff" fill-opacity="1">
        <g transform="translate(509.813594, 411.497201)">
            <g>
                <path d="M 7.625 0 L 3.15625 0 C 2.769531 0 2.488281 -0.0820312 2.3125 -0.25 C 2.144531 -0.425781 2.0625 -0.703125 2.0625 -1.078125 L 2.0625 -20.515625 C 2.0625 -20.898438 2.144531 -21.175781 2.3125 -21.34375 C 2.488281 -21.507812 2.769531 -21.59375 3.15625 -21.59375 L 7.984375 -21.59375 C 8.296875 -21.59375 8.554688 -21.523438 8.765625 -21.390625 C 8.984375 -21.253906 9.179688 -21.023438 9.359375 -20.703125 L 12.0625 -15.8125 C 12.15625 -15.632812 12.238281 -15.503906 12.3125 -15.421875 C 12.382812 -15.335938 12.476562 -15.296875 12.59375 -15.296875 L 12.875 -15.296875 C 12.988281 -15.296875 13.082031 -15.335938 13.15625 -15.421875 C 13.226562 -15.503906 13.3125 -15.632812 13.40625 -15.8125 L 16.078125 -20.703125 C 16.253906 -21.023438 16.445312 -21.253906 16.65625 -21.390625 C 16.875 -21.523438 17.140625 -21.59375 17.453125 -21.59375 L 22.3125 -21.59375 C 22.695312 -21.59375 22.972656 -21.507812 23.140625 -21.34375 C 23.316406 -21.175781 23.40625 -20.898438 23.40625 -20.515625 L 23.40625 -1.078125 C 23.40625 -0.703125 23.316406 -0.425781 23.140625 -0.25 C 22.972656 -0.0820312 22.695312 0 22.3125 0 L 17.703125 0 C 17.316406 0 17.039062 -0.0820312 16.875 -0.25 C 16.707031 -0.425781 16.625 -0.703125 16.625 -1.078125 L 16.625 -11.640625 L 14.84375 -8.375 C 14.664062 -8.03125 14.453125 -7.78125 14.203125 -7.625 C 13.953125 -7.476562 13.640625 -7.40625 13.265625 -7.40625 L 12.0625 -7.40625 C 11.675781 -7.40625 11.359375 -7.476562 11.109375 -7.625 C 10.859375 -7.78125 10.644531 -8.03125 10.46875 -8.375 L 8.703125 -11.640625 L 8.703125 -1.078125 C 8.703125 -0.703125 8.613281 -0.425781 8.4375 -0.25 C 8.269531 -0.0820312 8 0 7.625 0 Z M 7.625 0 "/>
            </g>
        </g>
    </g>
    <g fill="#ff00ff" fill-opacity="1">
        <g transform="translate(535.283563, 411.497201)">
            <g>
                <path d="M 17.0625 0 L 3.15625 0 C 2.769531 0 2.488281 -0.0820312 2.3125 -0.25 C 2.144531 -0.425781 2.0625 -0.703125 2.0625 -1.078125 L 2.0625 -20.515625 C 2.0625 -20.898438 2.144531 -21.175781 2.3125 -21.34375 C 2.488281 -21.507812 2.769531 -21.59375 3.15625 -21.59375 L 17.0625 -21.59375 C 17.445312 -21.59375 17.722656 -21.507812 17.890625 -21.34375 C 18.066406 -21.175781 18.15625 -20.898438 18.15625 -20.515625 L 18.15625 -17.015625 C 18.15625 -16.628906 18.066406 -16.351562 17.890625 -16.1875 C 17.722656 -16.019531 17.445312 -15.9375 17.0625 -15.9375 L 8.796875 -15.9375 L 8.796875 -13.625 L 14.640625 -13.625 C 15.015625 -13.625 15.285156 -13.535156 15.453125 -13.359375 C 15.628906 -13.191406 15.71875 -12.921875 15.71875 -12.546875 L 15.71875 -9.328125 C 15.71875 -8.953125 15.628906 -8.675781 15.453125 -8.5 C 15.285156 -8.332031 15.015625 -8.25 14.640625 -8.25 L 8.796875 -8.25 L 8.796875 -5.671875 L 17.0625 -5.671875 C 17.445312 -5.671875 17.722656 -5.582031 17.890625 -5.40625 C 18.066406 -5.238281 18.15625 -4.96875 18.15625 -4.59375 L 18.15625 -1.078125 C 18.15625 -0.703125 18.066406 -0.425781 17.890625 -0.25 C 17.722656 -0.0820312 17.445312 0 17.0625 0 Z M 17.0625 0 "/>
            </g>
        </g>
    </g>
    <g fill="#00ffff" fill-opacity="1">
        <g transform="translate(468.236928, 410.039445)">
            <g>
                <path d="M 18.5625 0 L 9.125 0 C 6.625 0 4.765625 -0.5 3.546875 -1.5 C 2.335938 -2.5 1.734375 -4.039062 1.734375 -6.125 L 1.734375 -15.484375 C 1.734375 -17.554688 2.335938 -19.09375 3.546875 -20.09375 C 4.765625 -21.09375 6.625 -21.59375 9.125 -21.59375 L 16.625 -21.59375 C 17 -21.59375 17.269531 -21.507812 17.4375 -21.34375 C 17.613281 -21.175781 17.703125 -20.898438 17.703125 -20.515625 L 17.703125 -16.890625 C 17.703125 -16.503906 17.613281 -16.226562 17.4375 -16.0625 C 17.269531 -15.894531 17 -15.8125 16.625 -15.8125 L 10.375 -15.8125 C 9.757812 -15.8125 9.300781 -15.6875 9 -15.4375 C 8.695312 -15.1875 8.546875 -14.8125 8.546875 -14.3125 L 8.546875 -7.140625 C 8.546875 -6.640625 8.660156 -6.269531 8.890625 -6.03125 C 9.117188 -5.789062 9.46875 -5.671875 9.9375 -5.671875 L 12.84375 -5.671875 L 12.84375 -10.34375 C 12.84375 -10.726562 12.925781 -11.003906 13.09375 -11.171875 C 13.257812 -11.347656 13.535156 -11.4375 13.921875 -11.4375 L 18.5625 -11.4375 C 18.945312 -11.4375 19.222656 -11.347656 19.390625 -11.171875 C 19.566406 -11.003906 19.65625 -10.726562 19.65625 -10.34375 L 19.65625 -1.078125 C 19.65625 -0.703125 19.566406 -0.425781 19.390625 -0.25 C 19.222656 -0.0820312 18.945312 0 18.5625 0 Z M 18.5625 0 "/>
            </g>
        </g>
    </g>
    <g fill="#00ffff" fill-opacity="1">
        <g transform="translate(489.476909, 410.039445)">
            <g>
                <path d="M 9.90625 -15.296875 L 8.484375 -10.734375 L 13.203125 -10.734375 L 11.796875 -15.296875 C 11.710938 -15.472656 11.625 -15.601562 11.53125 -15.6875 C 11.445312 -15.769531 11.34375 -15.8125 11.21875 -15.8125 L 10.46875 -15.8125 C 10.351562 -15.8125 10.25 -15.769531 10.15625 -15.6875 C 10.0625 -15.601562 9.976562 -15.472656 9.90625 -15.296875 Z M 8.1875 -1.078125 C 8.1875 -0.703125 8.101562 -0.425781 7.9375 -0.25 C 7.769531 -0.0820312 7.492188 0 7.109375 0 L 2.703125 0 C 2.316406 0 2.039062 -0.0820312 1.875 -0.25 C 1.707031 -0.425781 1.625 -0.703125 1.625 -1.078125 L 1.625 -9 C 1.625 -9.601562 1.71875 -10.289062 1.90625 -11.0625 C 2.09375 -11.84375 2.390625 -12.753906 2.796875 -13.796875 L 5.40625 -20.609375 C 5.519531 -20.953125 5.703125 -21.203125 5.953125 -21.359375 C 6.203125 -21.515625 6.53125 -21.59375 6.9375 -21.59375 L 15 -21.59375 C 15.375 -21.59375 15.6875 -21.515625 15.9375 -21.359375 C 16.1875 -21.203125 16.375 -20.953125 16.5 -20.609375 L 19.109375 -13.796875 C 19.503906 -12.753906 19.796875 -11.84375 19.984375 -11.0625 C 20.179688 -10.289062 20.28125 -9.601562 20.28125 -9 L 20.28125 -1.078125 C 20.28125 -0.703125 20.191406 -0.425781 20.015625 -0.25 C 19.847656 -0.0820312 19.578125 0 19.203125 0 L 14.671875 0 C 14.265625 0 13.96875 -0.0820312 13.78125 -0.25 C 13.59375 -0.425781 13.5 -0.703125 13.5 -1.078125 L 13.5 -5.28125 L 8.1875 -5.28125 Z M 8.1875 -1.078125 "/>
            </g>
        </g>
    </g>
    <g fill="#00ffff" fill-opacity="1">
        <g transform="translate(511.376882, 410.039445)">
            <g>
                <path d="M 7.625 0 L 3.15625 0 C 2.769531 0 2.488281 -0.0820312 2.3125 -0.25 C 2.144531 -0.425781 2.0625 -0.703125 2.0625 -1.078125 L 2.0625 -20.515625 C 2.0625 -20.898438 2.144531 -21.175781 2.3125 -21.34375 C 2.488281 -21.507812 2.769531 -21.59375 3.15625 -21.59375 L 7.984375 -21.59375 C 8.296875 -21.59375 8.554688 -21.523438 8.765625 -21.390625 C 8.984375 -21.253906 9.179688 -21.023438 9.359375 -20.703125 L 12.0625 -15.8125 C 12.15625 -15.632812 12.238281 -15.503906 12.3125 -15.421875 C 12.382812 -15.335938 12.476562 -15.296875 12.59375 -15.296875 L 12.875 -15.296875 C 12.988281 -15.296875 13.082031 -15.335938 13.15625 -15.421875 C 13.226562 -15.503906 13.3125 -15.632812 13.40625 -15.8125 L 16.078125 -20.703125 C 16.253906 -21.023438 16.445312 -21.253906 16.65625 -21.390625 C 16.875 -21.523438 17.140625 -21.59375 17.453125 -21.59375 L 22.3125 -21.59375 C 22.695312 -21.59375 22.972656 -21.507812 23.140625 -21.34375 C 23.316406 -21.175781 23.40625 -20.898438 23.40625 -20.515625 L 23.40625 -1.078125 C 23.40625 -0.703125 23.316406 -0.425781 23.140625 -0.25 C 22.972656 -0.0820312 22.695312 0 22.3125 0 L 17.703125 0 C 17.316406 0 17.039062 -0.0820312 16.875 -0.25 C 16.707031 -0.425781 16.625 -0.703125 16.625 -1.078125 L 16.625 -11.640625 L 14.84375 -8.375 C 14.664062 -8.03125 14.453125 -7.78125 14.203125 -7.625 C 13.953125 -7.476562 13.640625 -7.40625 13.265625 -7.40625 L 12.0625 -7.40625 C 11.675781 -7.40625 11.359375 -7.476562 11.109375 -7.625 C 10.859375 -7.78125 10.644531 -8.03125 10.46875 -8.375 L 8.703125 -11.640625 L 8.703125 -1.078125 C 8.703125 -0.703125 8.613281 -0.425781 8.4375 -0.25 C 8.269531 -0.0820312 8 0 7.625 0 Z M 7.625 0 "/>
            </g>
        </g>
    </g>
    <g fill="#00ffff" fill-opacity="1">
        <g transform="translate(536.84685, 410.039445)">
            <g>
                <path d="M 17.0625 0 L 3.15625 0 C 2.769531 0 2.488281 -0.0820312 2.3125 -0.25 C 2.144531 -0.425781 2.0625 -0.703125 2.0625 -1.078125 L 2.0625 -20.515625 C 2.0625 -20.898438 2.144531 -21.175781 2.3125 -21.34375 C 2.488281 -21.507812 2.769531 -21.59375 3.15625 -21.59375 L 17.0625 -21.59375 C 17.445312 -21.59375 17.722656 -21.507812 17.890625 -21.34375 C 18.066406 -21.175781 18.15625 -20.898438 18.15625 -20.515625 L 18.15625 -17.015625 C 18.15625 -16.628906 18.066406 -16.351562 17.890625 -16.1875 C 17.722656 -16.019531 17.445312 -15.9375 17.0625 -15.9375 L 8.796875 -15.9375 L 8.796875 -13.625 L 14.640625 -13.625 C 15.015625 -13.625 15.285156 -13.535156 15.453125 -13.359375 C 15.628906 -13.191406 15.71875 -12.921875 15.71875 -12.546875 L 15.71875 -9.328125 C 15.71875 -8.953125 15.628906 -8.675781 15.453125 -8.5 C 15.285156 -8.332031 15.015625 -8.25 14.640625 -8.25 L 8.796875 -8.25 L 8.796875 -5.671875 L 17.0625 -5.671875 C 17.445312 -5.671875 17.722656 -5.582031 17.890625 -5.40625 C 18.066406 -5.238281 18.15625 -4.96875 18.15625 -4.59375 L 18.15625 -1.078125 C 18.15625 -0.703125 18.066406 -0.425781 17.890625 -0.25 C 17.722656 -0.0820312 17.445312 0 17.0625 0 Z M 17.0625 0 "/>
            </g>
        </g>
    </g>
    <g fill="#7843e6" fill-opacity="1">
        <g transform="translate(467.455296, 410.768323)">
            <g>
                <path d="M 18.5625 0 L 9.125 0 C 6.625 0 4.765625 -0.5 3.546875 -1.5 C 2.335938 -2.5 1.734375 -4.039062 1.734375 -6.125 L 1.734375 -15.484375 C 1.734375 -17.554688 2.335938 -19.09375 3.546875 -20.09375 C 4.765625 -21.09375 6.625 -21.59375 9.125 -21.59375 L 16.625 -21.59375 C 17 -21.59375 17.269531 -21.507812 17.4375 -21.34375 C 17.613281 -21.175781 17.703125 -20.898438 17.703125 -20.515625 L 17.703125 -16.890625 C 17.703125 -16.503906 17.613281 -16.226562 17.4375 -16.0625 C 17.269531 -15.894531 17 -15.8125 16.625 -15.8125 L 10.375 -15.8125 C 9.757812 -15.8125 9.300781 -15.6875 9 -15.4375 C 8.695312 -15.1875 8.546875 -14.8125 8.546875 -14.3125 L 8.546875 -7.140625 C 8.546875 -6.640625 8.660156 -6.269531 8.890625 -6.03125 C 9.117188 -5.789062 9.46875 -5.671875 9.9375 -5.671875 L 12.84375 -5.671875 L 12.84375 -10.34375 C 12.84375 -10.726562 12.925781 -11.003906 13.09375 -11.171875 C 13.257812 -11.347656 13.535156 -11.4375 13.921875 -11.4375 L 18.5625 -11.4375 C 18.945312 -11.4375 19.222656 -11.347656 19.390625 -11.171875 C 19.566406 -11.003906 19.65625 -10.726562 19.65625 -10.34375 L 19.65625 -1.078125 C 19.65625 -0.703125 19.566406 -0.425781 19.390625 -0.25 C 19.222656 -0.0820312 18.945312 0 18.5625 0 Z M 18.5625 0 "/>
            </g>
        </g>
    </g>
    <g fill="#7843e6" fill-opacity="1">
        <g transform="translate(488.695277, 410.768323)">
            <g>
                <path d="M 9.90625 -15.296875 L 8.484375 -10.734375 L 13.203125 -10.734375 L 11.796875 -15.296875 C 11.710938 -15.472656 11.625 -15.601562 11.53125 -15.6875 C 11.445312 -15.769531 11.34375 -15.8125 11.21875 -15.8125 L 10.46875 -15.8125 C 10.351562 -15.8125 10.25 -15.769531 10.15625 -15.6875 C 10.0625 -15.601562 9.976562 -15.472656 9.90625 -15.296875 Z M 8.1875 -1.078125 C 8.1875 -0.703125 8.101562 -0.425781 7.9375 -0.25 C 7.769531 -0.0820312 7.492188 0 7.109375 0 L 2.703125 0 C 2.316406 0 2.039062 -0.0820312 1.875 -0.25 C 1.707031 -0.425781 1.625 -0.703125 1.625 -1.078125 L 1.625 -9 C 1.625 -9.601562 1.71875 -10.289062 1.90625 -11.0625 C 2.09375 -11.84375 2.390625 -12.753906 2.796875 -13.796875 L 5.40625 -20.609375 C 5.519531 -20.953125 5.703125 -21.203125 5.953125 -21.359375 C 6.203125 -21.515625 6.53125 -21.59375 6.9375 -21.59375 L 15 -21.59375 C 15.375 -21.59375 15.6875 -21.515625 15.9375 -21.359375 C 16.1875 -21.203125 16.375 -20.953125 16.5 -20.609375 L 19.109375 -13.796875 C 19.503906 -12.753906 19.796875 -11.84375 19.984375 -11.0625 C 20.179688 -10.289062 20.28125 -9.601562 20.28125 -9 L 20.28125 -1.078125 C 20.28125 -0.703125 20.191406 -0.425781 20.015625 -0.25 C 19.847656 -0.0820312 19.578125 0 19.203125 0 L 14.671875 0 C 14.265625 0 13.96875 -0.0820312 13.78125 -0.25 C 13.59375 -0.425781 13.5 -0.703125 13.5 -1.078125 L 13.5 -5.28125 L 8.1875 -5.28125 Z M 8.1875 -1.078125 "/>
            </g>
        </g>
    </g>
    <g fill="#7843e6" fill-opacity="1">
        <g transform="translate(510.59525, 410.768323)">
            <g>
                <path d="M 7.625 0 L 3.15625 0 C 2.769531 0 2.488281 -0.0820312 2.3125 -0.25 C 2.144531 -0.425781 2.0625 -0.703125 2.0625 -1.078125 L 2.0625 -20.515625 C 2.0625 -20.898438 2.144531 -21.175781 2.3125 -21.34375 C 2.488281 -21.507812 2.769531 -21.59375 3.15625 -21.59375 L 7.984375 -21.59375 C 8.296875 -21.59375 8.554688 -21.523438 8.765625 -21.390625 C 8.984375 -21.253906 9.179688 -21.023438 9.359375 -20.703125 L 12.0625 -15.8125 C 12.15625 -15.632812 12.238281 -15.503906 12.3125 -15.421875 C 12.382812 -15.335938 12.476562 -15.296875 12.59375 -15.296875 L 12.875 -15.296875 C 12.988281 -15.296875 13.082031 -15.335938 13.15625 -15.421875 C 13.226562 -15.503906 13.3125 -15.632812 13.40625 -15.8125 L 16.078125 -20.703125 C 16.253906 -21.023438 16.445312 -21.253906 16.65625 -21.390625 C 16.875 -21.523438 17.140625 -21.59375 17.453125 -21.59375 L 22.3125 -21.59375 C 22.695312 -21.59375 22.972656 -21.507812 23.140625 -21.34375 C 23.316406 -21.175781 23.40625 -20.898438 23.40625 -20.515625 L 23.40625 -1.078125 C 23.40625 -0.703125 23.316406 -0.425781 23.140625 -0.25 C 22.972656 -0.0820312 22.695312 0 22.3125 0 L 17.703125 0 C 17.316406 0 17.039062 -0.0820312 16.875 -0.25 C 16.707031 -0.425781 16.625 -0.703125 16.625 -1.078125 L 16.625 -11.640625 L 14.84375 -8.375 C 14.664062 -8.03125 14.453125 -7.78125 14.203125 -7.625 C 13.953125 -7.476562 13.640625 -7.40625 13.265625 -7.40625 L 12.0625 -7.40625 C 11.675781 -7.40625 11.359375 -7.476562 11.109375 -7.625 C 10.859375 -7.78125 10.644531 -8.03125 10.46875 -8.375 L 8.703125 -11.640625 L 8.703125 -1.078125 C 8.703125 -0.703125 8.613281 -0.425781 8.4375 -0.25 C 8.269531 -0.0820312 8 0 7.625 0 Z M 7.625 0 "/>
            </g>
        </g>
    </g>
    <g fill="#7843e6" fill-opacity="1">
        <g transform="translate(536.065219, 410.768323)">
            <g>
                <path d="M 17.0625 0 L 3.15625 0 C 2.769531 0 2.488281 -0.0820312 2.3125 -0.25 C 2.144531 -0.425781 2.0625 -0.703125 2.0625 -1.078125 L 2.0625 -20.515625 C 2.0625 -20.898438 2.144531 -21.175781 2.3125 -21.34375 C 2.488281 -21.507812 2.769531 -21.59375 3.15625 -21.59375 L 17.0625 -21.59375 C 17.445312 -21.59375 17.722656 -21.507812 17.890625 -21.34375 C 18.066406 -21.175781 18.15625 -20.898438 18.15625 -20.515625 L 18.15625 -17.015625 C 18.15625 -16.628906 18.066406 -16.351562 17.890625 -16.1875 C 17.722656 -16.019531 17.445312 -15.9375 17.0625 -15.9375 L 8.796875 -15.9375 L 8.796875 -13.625 L 14.640625 -13.625 C 15.015625 -13.625 15.285156 -13.535156 15.453125 -13.359375 C 15.628906 -13.191406 15.71875 -12.921875 15.71875 -12.546875 L 15.71875 -9.328125 C 15.71875 -8.953125 15.628906 -8.675781 15.453125 -8.5 C 15.285156 -8.332031 15.015625 -8.25 14.640625 -8.25 L 8.796875 -8.25 L 8.796875 -5.671875 L 17.0625 -5.671875 C 17.445312 -5.671875 17.722656 -5.582031 17.890625 -5.40625 C 18.066406 -5.238281 18.15625 -4.96875 18.15625 -4.59375 L 18.15625 -1.078125 C 18.15625 -0.703125 18.066406 -0.425781 17.890625 -0.25 C 17.722656 -0.0820312 17.445312 0 17.0625 0 Z M 17.0625 0 "/>
            </g>
        </g>
    </g>
</svg>